<?xml version="1.0" encoding="utf-8"?>
<svg id="master-artboard" viewBox="0 0 1400 980" version="1.1" xmlns="http://www.w3.org/2000/svg" x="0px" y="0px" style="enable-background:new 0 0 1400 980;" width="1400px" height="980px"><g transform="matrix(0.98, 0, 0, 0.98, 14.000013325312466, -0.000004441770670382539)"><path d="M 0 0 H 1400 V 1000 H 0 V 0 Z" class="st0" style="fill: rgb(255, 255, 255);"/><path d="M 1266.200012 739.799988 A 566.200012 13.4 0 0 1 700 753.199987 A 566.200012 13.4 0 0 1 133.799988 739.799988 A 566.200012 13.4 0 0 1 700 726.399988 A 566.200012 13.4 0 0 1 1266.200012 739.799988 Z" class="st1" style="fill: rgb(217, 223, 232);"/><g>
	<g>
		<g>
			<path d="M 728.200001 671.400024 A 54.700001 54.700001 0 0 1 673.5 726.100025 A 54.700001 54.700001 0 0 1 618.799999 671.400024 A 54.700001 54.700001 0 0 1 673.5 616.700024 A 54.700001 54.700001 0 0 1 728.200001 671.400024 Z" class="st2" style="fill: rgb(148, 155, 175);"/>
			<g>
				<path class="st3" d="M673.5,616.7c-30.2,0-54.7,24.5-54.7,54.7c0,30.2,24.5,54.7,54.7,54.7c30.2,0,54.7-24.5,54.7-54.7&#10;&#9;&#9;&#9;&#9;&#9;C728.2,641.2,703.7,616.7,673.5,616.7z M681.5,629.7c9.6,1.8,18,6.9,24.1,13.9l-24.1,13.9V629.7z M633.4,685.4&#10;&#9;&#9;&#9;&#9;&#9;c-1.5-4.4-2.4-9.1-2.4-13.9s0.8-9.6,2.4-13.9l24.1,13.9L633.4,685.4z M665.5,713.1c-9.6-1.8-18-6.9-24.1-13.9l24.1-13.9V713.1z&#10;&#9;&#9;&#9;&#9;&#9; M665.5,657.6l-24.1-13.9c6.1-7.1,14.6-12.1,24.1-13.9V657.6z M673.5,677.7c-3.5,0-6.3-2.8-6.3-6.3c0-3.5,2.8-6.3,6.3-6.3&#10;&#9;&#9;&#9;&#9;&#9;c3.5,0,6.3,2.8,6.3,6.3C679.8,674.9,677,677.7,673.5,677.7z M681.5,713.1v-27.9l24.1,13.9C699.5,706.3,691.1,711.3,681.5,713.1z&#10;&#9;&#9;&#9;&#9;&#9; M689.5,671.4l24.1-13.9c1.5,4.4,2.4,9.1,2.4,13.9s-0.8,9.6-2.4,13.9L689.5,671.4z" style="fill: rgb(204, 212, 229);"/>
			</g>
			<g>
				<path class="st4" d="M673.5,603c-37.8,0-68.4,30.6-68.4,68.4s30.6,68.4,68.4,68.4s68.4-30.6,68.4-68.4S711.3,603,673.5,603z&#10;&#9;&#9;&#9;&#9;&#9; M673.5,718.6c-26.1,0-47.2-21.1-47.2-47.2s21.1-47.2,47.2-47.2c26.1,0,47.2,21.1,47.2,47.2S699.6,718.6,673.5,718.6z" style="fill: rgb(52, 52, 52);"/>
			</g>
		</g>
		<path class="st5" d="M779.1,678.9H655.4c-30.5,0-52.3-29.6-43.3-58.7l20.6-66.5L779.1,678.9z" style="fill: rgb(72, 214, 214);"/>
		<path d="M 649.2000122070312 417.79998779296875 L 630.7000122070312 417.79998779296875 L 612.0999755859375 382.8999938964844 L 630.7000122070312 382.8999938964844 Z" class="st3" style="fill: rgb(204, 212, 229);"/>
		<path class="st5" d="M759.8,685.2h454.5V572.9c0-14.7-7.6-28.4-20.2-36.2l-69.3-42.8c-97.8-60.3-210.5-92.3-325.4-92.3H640.3&#10;&#9;&#9;&#9;c-9.3,0-16.9,7.5-16.9,16.9v144.9c0,4.7,2,9.3,5.6,12.4l119.9,105.3C751.9,683.8,755.8,685.2,759.8,685.2z" style="fill: rgb(72, 214, 214);"/>
		<path d="M 865.900024 491.600006 H 870.600024 V 627.200012 H 865.900024 V 491.600006 Z" class="st6" style="fill: rgb(44, 199, 206);"/>
		<g>
			<path d="M 623.400024 501 H 663.100025 V 533.400002 H 623.400024 V 501 Z" class="st7" style="fill: rgb(242, 125, 71);"/>
			<path class="st8" d="M663.1,493c0-21.9-17.8-39.7-39.7-39.7l0,0V501h39.7V493z" style="fill: rgb(242, 88, 81);"/>
			<path class="st4" d="M653,484.2h-29.6v-5H653c1.4,0,2.5,1.1,2.5,2.5l0,0C655.5,483.1,654.4,484.2,653,484.2z" style="fill: rgb(52, 52, 52);"/>
			<path class="st4" d="M653,503.5h-29.6v-5H653c1.4,0,2.5,1.1,2.5,2.5l0,0C655.5,502.4,654.4,503.5,653,503.5z" style="fill: rgb(52, 52, 52);"/>
		</g>
		<path class="st2" d="M1223,685.2h-65.8v-34.6h65.8c9.6,0,17.3,7.7,17.3,17.3v0C1240.2,677.5,1232.5,685.2,1223,685.2z" style="fill: rgb(148, 155, 175);"/>
		<path class="st9" d="M1102.4,592.7c-43.5,0-78.7,35.2-78.7,78.7c0,4.7,0.4,9.3,1.2,13.8h155c0.8-4.5,1.2-9.1,1.2-13.8&#10;&#9;&#9;&#9;C1181,628,1145.8,592.7,1102.4,592.7z" style="fill: rgb(79, 84, 84);"/>
		<g>
			<path d="M 1157.100025 671.400024 A 54.700001 54.700001 0 0 1 1102.400024 726.100025 A 54.700001 54.700001 0 0 1 1047.700024 671.400024 A 54.700001 54.700001 0 0 1 1102.400024 616.700024 A 54.700001 54.700001 0 0 1 1157.100025 671.400024 Z" class="st2" style="fill: rgb(148, 155, 175);"/>
			<g>
				<path class="st3" d="M1102.4,616.7c-30.2,0-54.7,24.5-54.7,54.7c0,30.2,24.5,54.7,54.7,54.7c30.2,0,54.7-24.5,54.7-54.7&#10;&#9;&#9;&#9;&#9;&#9;C1157,641.2,1132.5,616.7,1102.4,616.7z M1110.3,629.7c9.6,1.8,18,6.9,24.1,13.9l-24.1,13.9V629.7z M1062.3,685.4&#10;&#9;&#9;&#9;&#9;&#9;c-1.5-4.4-2.4-9.1-2.4-13.9s0.8-9.6,2.4-13.9l24.1,13.9L1062.3,685.4z M1094.4,713.1c-9.6-1.8-18-6.9-24.1-13.9l24.1-13.9V713.1&#10;&#9;&#9;&#9;&#9;&#9;z M1094.4,657.6l-24.1-13.9c6.1-7.1,14.6-12.1,24.1-13.9V657.6z M1102.4,677.7c-3.5,0-6.3-2.8-6.3-6.3c0-3.5,2.8-6.3,6.3-6.3&#10;&#9;&#9;&#9;&#9;&#9;c3.5,0,6.3,2.8,6.3,6.3C1108.6,674.9,1105.8,677.7,1102.4,677.7z M1110.3,713.1v-27.9l24.1,13.9&#10;&#9;&#9;&#9;&#9;&#9;C1128.3,706.3,1119.9,711.3,1110.3,713.1z M1118.3,671.4l24.1-13.9c1.5,4.4,2.4,9.1,2.4,13.9s-0.8,9.6-2.4,13.9L1118.3,671.4z" style="fill: rgb(204, 212, 229);"/>
			</g>
			<g>
				<path class="st4" d="M1102.4,603c-37.8,0-68.4,30.6-68.4,68.4s30.6,68.4,68.4,68.4c37.8,0,68.4-30.6,68.4-68.4&#10;&#9;&#9;&#9;&#9;&#9;S1140.1,603,1102.4,603z M1102.4,718.6c-26.1,0-47.2-21.1-47.2-47.2s21.1-47.2,47.2-47.2c26.1,0,47.2,21.1,47.2,47.2&#10;&#9;&#9;&#9;&#9;&#9;S1128.4,718.6,1102.4,718.6z" style="fill: rgb(52, 52, 52);"/>
			</g>
		</g>
		<g>
			<g>
				<path class="st10" d="M1059.8,572.6l-436.3-55.4v46.2c0,4.7,2,9.3,5.6,12.4l119.9,105.3c3,2.6,6.9,4.1,10.9,4.1h235.8&#10;&#9;&#9;&#9;&#9;&#9;c-0.6-4.3-0.9-8.7-0.9-13.8C994.7,627.2,1021.5,589.1,1059.8,572.6z" style="fill: rgb(0, 156, 230);"/>
			</g>
			<path class="st11" d="M1077,504.4L1077,504.4c3.4-7.7,0.1-16.8-7.4-20.6c-83.6-42-176-64-270.1-64h-76.2&#10;&#9;&#9;&#9;&#9;c-14,0-25.4,11.4-25.4,25.4v30c0,12.8,9.5,23.6,22.2,25.2l297.6,37.8C1042.7,541.3,1066.8,527.5,1077,504.4z" style="fill: rgb(78, 117, 130);"/>
			<path class="st12" d="M1024.8,534.9c-2.2,0-4.5-0.1-6.7-0.4l-297.6-37.8c-10.9-1.4-19-10.7-19-21.6v-30c0-12,9.8-21.8,21.8-21.8&#10;&#9;&#9;&#9;&#9;h76.2c46.5,0,93,5.4,138.2,16.2c45.1,10.7,88.9,26.7,130.3,47.5c5.8,2.9,8.3,9.9,5.7,15.9C1065.2,522.4,1046,534.9,1024.8,534.9&#10;&#9;&#9;&#9;&#9;C1024.8,534.9,1024.8,534.9,1024.8,534.9z" style="fill: rgb(161, 235, 255);"/>
			<g>
				<path class="st13" d="M900.8,458.9L900.8,458.9c-8.5,0.8-14.7,8.4-13.8,16.9l4.3,42.6l31.4,4l-5-49.6&#10;&#9;&#9;&#9;&#9;&#9;C916.8,464.3,909.3,458.1,900.8,458.9z" style="fill: rgb(119, 185, 201);"/>
			</g>
			<g>
				<path class="st13" d="M737.9,458.9L737.9,458.9c-8.5,0.8-14.7,8.4-13.8,16.9l2.2,21.6l31.4,4l-2.9-28.7&#10;&#9;&#9;&#9;&#9;&#9;C754,464.3,746.4,458.1,737.9,458.9z" style="fill: rgb(119, 185, 201);"/>
			</g>
		</g>
		<path class="st10" d="M588,359.1l61.8,11.5c1.6,0.3,2.7,1.7,2.7,3.3v0c0,8.7-7,15.7-15.7,15.7h-33.5c-7.1,0-13.2-4.7-15.1-11.5&#10;&#9;&#9;&#9;l-4.1-14.8C583.5,360.8,585.6,358.6,588,359.1z" style="fill: rgb(0, 156, 230);"/>
		<g>
			<path class="st14" d="M1187.6,579.7c4.4,1.1,8.7-2.2,8.7-6.8l0,0c0-8.5-4.3-16.3-11.6-20.8l-57.5-35.5c-1.2-0.8-2.7,0.7-1.9,1.9&#10;&#9;&#9;&#9;&#9;l18.1,29.1C1153.4,563.7,1169.3,575.2,1187.6,579.7L1187.6,579.7z" style="fill: rgb(226, 232, 242);"/>
		</g>
		<g>
			<path class="st15" d="M1196.3,572.9c0-8.5-4.3-16.3-11.6-20.8l-46.5-28.7c6.9,14.9,22.5,41,51.8,56.4&#10;&#9;&#9;&#9;&#9;C1193.4,579.5,1196.3,576.6,1196.3,572.9z" style="fill: rgb(248, 252, 253);"/>
		</g>
		<g>
			<path class="st3" d="M1177.2,562.4c0-5.6-4.5-10.1-10.1-10.1c-5.6,0-10.1,4.5-10.1,10.1c0,0.5,0,0.9,0.1,1.4&#10;&#9;&#9;&#9;&#9;c3.7,3.2,7.7,6.1,12,8.5C1173.7,571.4,1177.2,567.3,1177.2,562.4z" style="fill: rgb(204, 212, 229);"/>
		</g>
		<path d="M 720.7000122070312 543.5 L 808.5 672.7999877929688 L 995.5999755859375 685.2000122070312 L 800.2999877929688 685.2000122070312 Z" class="st16" style="fill: rgb(0, 131, 229);"/>
		<path class="st16" d="M1059.8,572.6l-436.3-48.1v-7.3C635.4,518.7,1047.1,571,1059.8,572.6z" style="fill: rgb(0, 131, 229);"/>
		<g>
			<g>
				<path class="st17" d="M1076.7,529c-1.4,0-2.7-0.9-3.1-2.3c0-0.1-2.8-8.4-9.2-11.1c-1.6-0.7-2.4-2.6-1.7-4.3&#10;&#9;&#9;&#9;&#9;&#9;c0.7-1.6,2.6-2.4,4.3-1.7c9.2,4,12.7,14.7,12.8,15.2c0.5,1.7-0.4,3.5-2.1,4.1C1077.4,529,1077,529,1076.7,529z" style="fill: rgb(78, 234, 229);"/>
			</g>
			<path class="st16" d="M1033.8,493.5c-2.9,23.9,21.9,24.5,29.7,25.4c4.8,0.6,12.1-6.2,5.1-15C1061.6,495,1036,474.9,1033.8,493.5z&#10;&#9;&#9;&#9;&#9;" style="fill: rgb(0, 131, 229);"/>
		</g>
		<g>
			<path class="st11" d="M854.1,422.3v95.1l28.2,3.6v-95.4C873,424.2,863.6,423.1,854.1,422.3z" style="fill: rgb(78, 117, 130);"/>
		</g>
		<path d="M 865.900024 549.700012 H 870.600024 V 685.300018 H 865.900024 V 549.700012 Z" class="st16" style="fill: rgb(0, 131, 229);"/>
		<g>
			<path class="st18" d="M914.1,434.5l34.1,91.2l14.7,1.9l-33.6-89.9C924.3,436.5,919.2,435.5,914.1,434.5z" style="fill: rgb(192, 243, 255);"/>
			<path class="st18" d="M981.9,451.9l30.6,81.9l4.3,0.5l-30.3-80.9C985,452.9,983.5,452.4,981.9,451.9z" style="fill: rgb(192, 243, 255);"/>
			<path class="st18" d="M944.4,441.2l32.9,88.1l24.6,3.1l-31.4-84.1C961.8,445.8,953.1,443.4,944.4,441.2z" style="fill: rgb(192, 243, 255);"/>
			<path class="st18" d="M799.4,423.4h-6.6l32.4,86.6l24.6,3.1l-33.5-89.5C810.7,423.5,805.1,423.4,799.4,423.4z" style="fill: rgb(192, 243, 255);"/>
			<path d="M 746.5 423.3999938964844 L 776.5999755859375 503.79998779296875 L 789.9000244140625 505.5 L 759.2000122070312 423.3999938964844 Z" class="st18" style="fill: rgb(192, 243, 255);"/>
		</g>
	</g>
	<g>
		<path class="st10" d="M309.7,739.8H180.8c-11.6,0-21-9.4-21-21V281.2c0-11.6,9.4-21,21-21h128.9c11.6,0,21,9.4,21,21v437.6&#10;&#9;&#9;&#9;C330.7,730.4,321.3,739.8,309.7,739.8z" style="fill: rgb(0, 156, 230);"/>
		
			<path d="M 179.800003 280.200012 H 310.699997 V 411.100006 H 179.800003 V 280.200012 Z" transform="matrix(-1.836970e-16 1 -1 -1.836970e-16 590.8829 100.4414)" class="st12" style="fill: rgb(161, 235, 255);"/>
		<path d="M 280.299995 532.5 A 35.099998 35.099998 0 0 1 245.199997 567.599998 A 35.099998 35.099998 0 0 1 210.099998 532.5 A 35.099998 35.099998 0 0 1 245.199997 497.400002 A 35.099998 35.099998 0 0 1 280.299995 532.5 Z" class="st19" style="fill: rgb(63, 70, 81);"/>
		<path d="M 261 480.20001220703125 L 230.5 537.2000122070312 L 244.6999969482422 537.2000122070312 L 223.10000610351562 584.7000122070312 L 267.29998779296875 524.5999755859375 L 246.6999969482422 524.5999755859375 Z" class="st20" style="fill: rgb(248, 149, 92);"/>
		<g>
			<path d="M 254.3000030517578 303 L 254.3000030517578 293.8999938964844 L 236.10000610351562 293.8999938964844 L 236.10000610351562 303 L 217.89999389648438 303 L 217.89999389648438 397.3999938964844 L 272.5 397.3999938964844 L 272.5 303 Z" class="st8" style="fill: rgb(242, 88, 81);"/>
			<g>
				
					<path d="M 203 327.899994 H 287.400002 V 372.499992 H 203 V 327.899994 Z" transform="matrix(-1.836970e-16 1 -1 -1.836970e-16 595.434 104.9924)" class="st12" style="fill: rgb(161, 235, 255);"/>
			</g>
			<path d="M 225.899994 332.799988 H 264.899994 V 339.699988 H 225.899994 V 332.799988 Z" class="st20" style="fill: rgb(248, 149, 92);"/>
			<path d="M 225.899994 342.799988 H 264.899994 V 349.699988 H 225.899994 V 342.799988 Z" class="st20" style="fill: rgb(248, 149, 92);"/>
			<path d="M 225.899994 352.799988 H 264.899994 V 359.699988 H 225.899994 V 352.799988 Z" class="st20" style="fill: rgb(248, 149, 92);"/>
			<path d="M 225.899994 362.700012 H 264.899994 V 369.600012 H 225.899994 V 362.700012 Z" class="st20" style="fill: rgb(248, 149, 92);"/>
			<path d="M 225.699997 372.700012 H 264.699997 V 379.600012 H 225.699997 V 372.700012 Z" class="st20" style="fill: rgb(248, 149, 92);"/>
			<path d="M 225.699997 382.700012 H 264.699997 V 389.600012 H 225.699997 V 382.700012 Z" class="st20" style="fill: rgb(248, 149, 92);"/>
		</g>
		<path d="M 310.79998779296875 445.5 L 309.79998779296875 739.7999877929688 L 294.20001220703125 460.70001220703125 L 196.39999389648438 460.70001220703125 L 180.8000030517578 739.7999877929688 L 179.6999969482422 445.5 Z" class="st16" style="fill: rgb(0, 131, 229);"/>
	</g>
	<g>
		<g>
			<path class="st20" d="M521.7,649H421.3c-19.2,0-34.8-15.6-34.8-34.8V506.4c0-8.2-6.6-14.8-14.8-14.8h-29.8c-5.5,0-10-4.5-10-10&#10;&#9;&#9;&#9;&#9;s4.5-10,10-10h29.8c19.2,0,34.8,15.6,34.8,34.8v107.7c0,8.2,6.6,14.8,14.8,14.8h100.4c8.2,0,14.8-6.6,14.8-14.8v-50.9&#10;&#9;&#9;&#9;&#9;c0-19.2,15.6-34.8,34.8-34.8h38.8c5.5,0,10,4.5,10,10s-4.5,10-10,10h-38.8c-8.2,0-14.8,6.6-14.8,14.8v50.9&#10;&#9;&#9;&#9;&#9;C556.5,633.4,540.9,649,521.7,649z" style="fill: rgb(248, 149, 92);"/>
		</g>
		<g>
			<path class="st19" d="M338.6,501h-7.9v-36.5h7.9c10.1,0,18.3,8.2,18.3,18.3v0C356.8,492.8,348.7,501,338.6,501z" style="fill: rgb(63, 70, 81);"/>
		</g>
		<g>
			<path class="st19" d="M615.3,556.8h7.9v-36.5h-7.9c-10.1,0-18.3,8.2-18.3,18.3l0,0C597,548.6,605.2,556.8,615.3,556.8z" style="fill: rgb(63, 70, 81);"/>
		</g>
	</g>
</g></g></svg>